<?xml version="1.0" encoding="utf-8"?><!DOCTYPE svg PUBLIC "-//W3C//DTD SVG 1.1//EN" "http://www.w3.org/Graphics/SVG/1.1/DTD/svg11.dtd"><svg xmlns="http://www.w3.org/2000/svg" xmlns:xlink="http://www.w3.org/1999/xlink" version="1.1" viewBox="-2 -2 52 52" xml:space="preserve">
<g>
	<path d="M39.502,16.62h-5.061c0.473,1.947,0.752,4.07,0.822,6.302h5.939C41.057,20.674,40.463,18.547,39.502,16.62z"/>
	<path d="M30.493,8.335c1.363,1.597,2.496,3.687,3.319,6.131h4.428C36.338,11.748,33.646,9.603,30.493,8.335z"/>
	<path d="M30.493,39.665c3.153-1.267,5.843-3.412,7.744-6.128h-4.426C32.988,35.979,31.855,38.068,30.493,39.665z"/>
	<path d="M41.203,25.076h-5.939c-0.07,2.233-0.35,4.358-0.823,6.306h5.062C40.462,29.454,41.057,27.328,41.203,25.076z"/>
	<path d="M25.01,40.801c2.649-0.599,4.992-3.357,6.475-7.264H25.01V40.801z"/>
	<path d="M25.01,22.922h8.101c-0.081-2.235-0.409-4.366-0.937-6.302H25.01V22.922z"/>
	<path d="M25.01,31.382h7.164c0.527-1.937,0.855-4.066,0.937-6.306H25.01V31.382z"/>
	<path d="M25.01,7.199v7.267h6.475C30.003,10.558,27.66,7.798,25.01,7.199z"/>
	<path d="M22.855,40.801v-7.264h-6.472C17.865,37.443,20.207,40.202,22.855,40.801z"/>
	<path d="M22.855,16.62h-7.162c-0.527,1.936-0.855,4.066-0.936,6.302h8.098V16.62z"/>
	<path d="M22.855,25.076h-8.098c0.081,2.239,0.409,4.369,0.937,6.306h7.162V25.076z"/>
	<path d="M22.855,7.199c-2.648,0.599-4.991,3.358-6.473,7.267h6.473V7.199z"/>
	<path d="M9.629,33.537c1.902,2.716,4.592,4.861,7.745,6.129c-1.363-1.598-2.495-3.687-3.318-6.129H9.629z"/>
	<path d="M9.628,14.466h4.427c0.824-2.444,1.957-4.534,3.319-6.132C14.22,9.602,11.53,11.748,9.628,14.466z"/>
	<path d="M8.366,31.382h5.061c-0.474-1.947-0.752-4.072-0.823-6.306H6.665C6.811,27.328,7.406,29.454,8.366,31.382z"/>
	<path d="M6.665,22.922h5.939c0.071-2.231,0.349-4.354,0.823-6.302H8.365C7.405,18.547,6.811,20.674,6.665,22.922z"/>
	<path d="M45.279,33.472c-0.484-0.251-1.082-0.06-1.332,0.426c-3.854,7.478-11.564,12.123-20.123,12.123   c-8.29,0-15.946-4.531-19.845-11.627l3.205,1.058c0.52,0.175,1.079-0.111,1.25-0.63c0.171-0.519-0.111-1.078-0.63-1.249   l-5.347-1.765c-0.264-0.089-0.553-0.061-0.795,0.077c-0.242,0.136-0.417,0.368-0.479,0.64l-1.158,5.018   c-0.123,0.533,0.209,1.064,0.743,1.188c0.075,0.017,0.149,0.024,0.223,0.024c0.45,0,0.857-0.309,0.963-0.768l0.513-2.224   C6.778,43.249,14.975,48,23.824,48c9.303,0,17.688-5.057,21.882-13.195C45.957,34.318,45.766,33.722,45.279,33.472z"/>
	<path d="M47.232,9.234c-0.531-0.125-1.064,0.209-1.188,0.742l-0.621,2.693C41.184,4.918,32.896,0,23.824,0   C14.494,0,5.834,5.319,1.763,13.551c-0.242,0.49-0.042,1.083,0.449,1.326c0.489,0.241,1.083,0.041,1.326-0.449   C7.277,6.866,15.241,1.979,23.824,1.979c8.266,0,15.815,4.437,19.745,11.44l-2.753-0.909c-0.521-0.174-1.078,0.109-1.251,0.629   c-0.171,0.519,0.11,1.079,0.63,1.25l5.346,1.767c0.102,0.033,0.207,0.05,0.311,0.05c0.168,0,0.336-0.042,0.486-0.127   c0.242-0.137,0.416-0.368,0.479-0.64l1.158-5.019C48.098,9.889,47.766,9.357,47.232,9.234z"/>
</g>
</svg>